<svg width="100" height="100" viewBox="0 0 100 100" fill="none" xmlns="http://www.w3.org/2000/svg">
<g filter="url(#filter0_d_963_7311)">
<circle cx="50" cy="40" r="26" fill="white"/>
</g>
<g filter="url(#filter1_d_963_7311)">
<circle cx="50" cy="40" r="26" fill="white"/>
</g>
<path d="M50.5375 48.502C50.2428 48.606 49.7575 48.606 49.4628 48.502C46.9495 47.644 41.3335 44.0646 41.3335 37.998C41.3335 35.32 43.4915 33.1533 46.1522 33.1533C47.7295 33.1533 49.1248 33.916 50.0002 35.0946C50.8755 33.916 52.2795 33.1533 53.8482 33.1533C56.5088 33.1533 58.6668 35.32 58.6668 37.998C58.6668 44.0646 53.0508 47.644 50.5375 48.502Z" stroke="#FF2F2F" stroke-width="1.5" stroke-linecap="round" stroke-linejoin="round"/>
<defs>
<filter id="filter0_d_963_7311" x="0" y="0" width="100" height="100" filterUnits="userSpaceOnUse" color-interpolation-filters="sRGB">
<feFlood flood-opacity="0" result="BackgroundImageFix"/>
<feColorMatrix in="SourceAlpha" type="matrix" values="0 0 0 0 0 0 0 0 0 0 0 0 0 0 0 0 0 0 127 0" result="hardAlpha"/>
<feOffset dy="10"/>
<feGaussianBlur stdDeviation="12"/>
<feComposite in2="hardAlpha" operator="out"/>
<feColorMatrix type="matrix" values="0 0 0 0 0 0 0 0 0 0 0 0 0 0 0 0 0 0 0.08 0"/>
<feBlend mode="normal" in2="BackgroundImageFix" result="effect1_dropShadow_963_7311"/>
<feBlend mode="normal" in="SourceGraphic" in2="effect1_dropShadow_963_7311" result="shape"/>
</filter>
<filter id="filter1_d_963_7311" x="0" y="0" width="100" height="100" filterUnits="userSpaceOnUse" color-interpolation-filters="sRGB">
<feFlood flood-opacity="0" result="BackgroundImageFix"/>
<feColorMatrix in="SourceAlpha" type="matrix" values="0 0 0 0 0 0 0 0 0 0 0 0 0 0 0 0 0 0 127 0" result="hardAlpha"/>
<feOffset dy="10"/>
<feGaussianBlur stdDeviation="12"/>
<feComposite in2="hardAlpha" operator="out"/>
<feColorMatrix type="matrix" values="0 0 0 0 0 0 0 0 0 0 0 0 0 0 0 0 0 0 0.08 0"/>
<feBlend mode="normal" in2="BackgroundImageFix" result="effect1_dropShadow_963_7311"/>
<feBlend mode="normal" in="SourceGraphic" in2="effect1_dropShadow_963_7311" result="shape"/>
</filter>
</defs>
</svg>
